# xmcd
#
# Track frame offsets:
#	150
#	20672
#	41527
#	55362
#	70506
#	91980
#	112757
#	133790
#	146100
#	168921
#	191830
#	198085
#	229135
#	247659
#
# Disc length: 3583 seconds
#
# Revision: 1
# Processed by: cddbd v1.5.2PL0 Copyright (c) Steve Scherf et al.
# Submitted via: audiograbber 1.80
#
DISCID=b90dfd0e
DTITLE=Dave Goodman - Rocks, Skies and Waters
DYEAR=1900
DGENRE=
TTITLE0=The Bride of Cowal
TTITLE1=Greasy Lou
TTITLE2=Slippery Fingers
TTITLE3=Wahat went wrong
TTITLE4=Shadows in my Head
TTITLE5=Kissin' Camels
TTITLE6=Rocks, Skies and Waters
TTITLE7=Make up her Mind
TTITLE8=Roll my Stone
TTITLE9=Stone Angel
TTITLE10=Wall of Jewels
TTITLE11=Love under Cover
TTITLE12=The Riverboat
TTITLE13=Faded Gold
EXTD=
EXTT0=
EXTT1=
EXTT2=
EXTT3=
EXTT4=
EXTT5=
EXTT6=
EXTT7=
EXTT8=
EXTT9=
EXTT10=
EXTT11=
EXTT12=
EXTT13=
PLAYORDER=
